<?xml version="1.0" standalone="no"?>
<!DOCTYPE svg PUBLIC "-//W3C//DTD SVG 20010904//EN"
 "http://www.w3.org/TR/2001/REC-SVG-20010904/DTD/svg10.dtd">
<svg version="1.0" xmlns="http://www.w3.org/2000/svg"
 width="512.000000pt" height="512.000000pt" viewBox="0 0 512.000000 512.000000"
 preserveAspectRatio="xMidYMid meet">
<metadata>
Created by potrace 1.11, written by Peter Selinger 2001-2013
</metadata>
<g transform="translate(0.000000,512.000000) scale(0.100000,-0.100000)"
fill="#000000" stroke="none">
<path d="M4340 5095 c-34 -36 -21 -88 31 -135 16 -15 14 -18 -21 -47 l-37 -32
-23 24 c-46 49 -103 50 -135 1 -14 -21 -15 -31 -5 -60 6 -19 17 -37 25 -40 23
-9 18 -21 -22 -49 -36 -26 -36 -26 -61 -6 -32 25 -63 24 -96 -2 -33 -26 -36
-77 -6 -104 22 -20 23 -13 -19 -169 l-29 -109 -638 -639 -639 -639 -150 6
c-257 12 -562 8 -755 -10 -25 -2 -77 -7 -115 -10 -39 -3 -79 -8 -90 -10 -11
-1 -45 -6 -75 -10 -30 -4 -82 -13 -115 -21 -33 -7 -76 -16 -95 -19 -49 -8 -99
-22 -210 -57 -236 -75 -407 -173 -550 -316 -98 -99 -208 -240 -220 -281 -7
-27 2 -59 23 -72 6 -4 2 -18 -10 -35 -10 -16 -27 -48 -38 -71 -17 -40 -26 -48
-49 -44 -24 5 -66 -24 -81 -56 -42 -88 -83 -227 -112 -378 -17 -90 -25 -363
-13 -440 4 -27 11 -70 14 -95 16 -117 82 -310 152 -438 l44 -83 -25 -33 c-27
-35 -31 -57 -15 -86 13 -24 326 -337 351 -350 27 -15 43 -12 82 14 l36 25 113
-58 c144 -73 283 -117 463 -148 69 -11 345 -9 430 3 263 39 502 132 730 283
76 50 85 57 189 147 94 81 139 131 202 224 100 148 197 390 238 591 22 107 45
243 50 289 4 30 8 70 10 88 3 17 7 71 11 120 3 48 8 102 11 121 6 48 -12 96
-41 109 -24 11 -25 16 -25 94 0 83 0 83 30 96 32 14 44 43 43 99 0 18 -3 113
-7 210 l-7 178 643 643 c354 353 648 642 653 643 31 2 86 16 169 41 42 12 71
17 75 11 10 -16 48 -33 75 -33 29 0 66 42 66 75 0 12 -9 34 -21 49 -21 26 -21
27 -3 49 45 52 43 51 68 28 38 -35 72 -36 106 -2 26 26 28 32 20 62 -6 18 -21
44 -34 58 l-25 24 31 39 30 39 36 -36 c34 -33 48 -40 82 -35 24 3 49 32 56 65
5 26 -1 38 -35 77 -23 25 -41 49 -41 52 0 4 10 18 23 32 33 35 50 89 42 131
-5 29 -40 69 -188 217 -100 101 -193 190 -207 199 -43 29 -101 22 -154 -19
l-48 -36 -31 30 c-60 56 -102 64 -137 27z"/>
</g>
</svg>
